<svg width="133" height="50" viewBox="0 0 133 50" fill="none" xmlns="http://www.w3.org/2000/svg">
<g clip-path="url(#clip0_3296_4158)">
<path d="M35.168 8.29549V1.00171H0.72622V21.5758H0.732535L0 49.0017H6.68123L7.06644 33.3532L14.8023 49.0017H19.8353L27.4953 33.5237L28.0447 49.0017H34.4291L33.3746 18.9741H27.5774L17.0441 40.3313L7.66004 21.1464V8.29549H35.168Z" stroke="#3DCFB6"/>
</g>
<path d="M43.2227 24.0255V1.93506H48.2905V19.573H57.838L57.5303 24.0255H43.2227Z" stroke="white"/>
<path d="M64.5747 24.3262C62.7466 24.3262 61.3711 23.7017 60.4389 22.4619C59.5068 21.2221 59.0453 19.4846 59.0724 17.2674L59.1358 8.18141H63.8959L63.8326 16.8873C63.8326 17.8194 63.9955 18.5615 64.3303 19.0954C64.6652 19.6384 65.181 19.9008 65.8869 19.9008C66.4842 19.9008 67.0362 19.7108 67.5339 19.3398C68.0317 18.9687 68.4661 18.3443 68.8371 17.4755C69.2081 16.6067 69.5068 15.4122 69.724 13.9009C69.9412 12.3895 70.0588 10.4801 70.086 8.17236H74.6923V24.0094H69.9321L70.1493 20.9597C69.5249 22.0366 68.7376 22.8692 67.7873 23.4483C66.8371 24.0275 65.7692 24.3171 64.5837 24.3171L64.5747 24.3262Z" stroke="white"/>
<path d="M78.3569 24.0243V1.00171H83.1171V14.5039L88.9994 8.18721H94.6646L87.5062 15.8433C87.9859 16.1329 88.375 16.513 88.6918 16.9926L89.9044 18.8931C90.5469 19.8885 91.4519 20.3863 92.6103 20.3863C93.2347 20.3863 93.823 20.2324 94.384 19.9157L95.4067 23.427C94.8275 23.7618 94.2302 23.9971 93.6148 24.1419C92.9994 24.2867 92.3569 24.3501 91.6691 24.332C90.3207 24.3139 89.2076 24.0605 88.3207 23.5808C87.4429 23.1012 86.6465 22.2958 85.9406 21.1555L84.728 19.2551C84.4384 18.8026 84.1669 18.4225 83.9225 18.1329C83.6782 17.8433 83.4067 17.6171 83.1171 17.4451V24.0062H78.3569V24.0243Z" stroke="white"/>
<path d="M111.122 8.24959V24.0233H106.335L106.489 21.6613C105.348 23.4441 103.656 24.34 101.421 24.34C100.009 24.34 98.8055 24.0233 97.81 23.3717C96.8145 22.7292 96.0544 21.8333 95.5385 20.693C95.0227 19.5527 94.7603 18.2496 94.7603 16.7745C94.7603 15.0098 95.1222 13.4622 95.8462 12.141C96.5702 10.8107 97.5476 9.77899 98.7693 9.04596C99.991 8.31293 101.358 7.94189 102.878 7.94189C103.873 7.94189 104.751 8.14099 105.52 8.54823C106.29 8.95547 106.878 9.4894 107.294 10.15L107.701 8.24959H111.122ZM103.348 12.0776C102.208 12.0776 101.312 12.503 100.661 13.3536C100.009 14.2043 99.6833 15.2903 99.6833 16.6206C99.6833 17.7609 99.9367 18.6387 100.443 19.2631C100.95 19.8876 101.638 20.1953 102.516 20.1953C103.575 20.1953 104.48 19.7609 105.24 18.8921C106 18.0233 106.371 16.8831 106.371 15.4713C106.371 14.4125 106.1 13.5889 105.566 12.9826C105.023 12.3853 104.29 12.0776 103.358 12.0776H103.348Z" stroke="white"/>
<path d="M120.599 24.3322C118.3 24.3322 116.554 23.8978 115.377 23.0381C114.192 22.1784 113.504 21.0381 113.296 19.6354L117.251 18.6399C117.377 19.2463 117.721 19.7259 118.273 20.0879C118.834 20.4499 119.604 20.6309 120.572 20.6309C122.128 20.6309 122.907 20.2689 122.907 19.5449C122.907 19.1739 122.68 18.8843 122.237 18.6852C121.794 18.4861 121.07 18.2961 120.074 18.106C118.21 17.7712 116.762 17.2463 115.73 16.5223C114.699 15.7983 114.192 14.6852 114.192 13.192C114.192 12.1784 114.481 11.2734 115.061 10.4861C115.64 9.69878 116.436 9.07435 117.459 8.62186C118.472 8.16938 119.649 7.93408 120.97 7.93408C122.69 7.93408 124.119 8.34132 125.251 9.14675C126.382 9.95218 127.052 10.9477 127.26 12.1332L123.368 13.192C123.223 12.7395 122.934 12.3594 122.509 12.0698C122.083 11.7802 121.504 11.6354 120.78 11.6354C120.092 11.6354 119.595 11.7531 119.269 11.9793C118.943 12.2056 118.789 12.4771 118.789 12.7848C118.789 13.1558 119.006 13.4544 119.441 13.6716C119.875 13.8888 120.644 14.1151 121.739 14.3413C122.861 14.5495 123.848 14.83 124.708 15.201C125.567 15.563 126.246 16.0608 126.726 16.6942C127.214 17.3277 127.459 18.1784 127.459 19.2644C127.459 20.2779 127.16 21.1739 126.572 21.9431C125.984 22.7123 125.169 23.3006 124.128 23.7169C123.088 24.1331 121.911 24.3413 120.581 24.3413L120.599 24.3322Z" stroke="white"/>
<path d="M43.168 48.6969L43.9462 26.6064H48.2087L55.9553 42.3168L63.6385 26.6064H67.901L68.4892 48.6969H63.5752L63.2946 37.1856L57.6023 48.6969H53.901L48.272 37.3123L47.8648 48.6969H43.168Z" stroke="white"/>
<path d="M75.3462 48.9859C73.5181 48.9859 72.1425 48.3615 71.2104 47.1217C70.2783 45.8819 69.8168 44.1443 69.8439 41.9271L69.9073 32.8412H74.6674L74.6041 41.547C74.6041 42.4791 74.767 43.2212 75.1018 43.7552C75.4367 44.2981 75.9525 44.5606 76.6584 44.5606C77.2557 44.5606 77.8077 44.3705 78.3054 43.9995C78.8032 43.6285 79.2376 43.004 79.6086 42.1353C79.9796 41.2665 80.2783 40.0719 80.4955 38.5606C80.7127 37.0493 80.8303 35.1398 80.8575 32.8321H85.4638V48.6692H80.7036L80.9208 45.6194C80.2964 46.6963 79.509 47.5289 78.5588 48.1081C77.6086 48.6873 76.5407 48.9769 75.3552 48.9769L75.3462 48.9859ZM74.5045 31.0131C73.6086 31.0131 72.9389 30.7416 72.4864 30.2077C72.0339 29.6647 71.7987 29.0946 71.7987 28.4973C71.7987 27.8547 72.0249 27.2756 72.4864 26.7597C72.9389 26.2439 73.6177 25.9814 74.5045 25.9814C75.3914 25.9814 76.0158 26.2439 76.4774 26.7597C76.948 27.2756 77.1742 27.8547 77.1742 28.4973C77.1742 29.1036 76.9389 29.6647 76.4774 30.2077C76.0068 30.7507 75.3552 31.0131 74.5045 31.0131ZM81.1018 31.0131C80.2059 31.0131 79.5271 30.7416 79.0656 30.2077C78.595 29.6647 78.3688 29.0946 78.3688 28.4973C78.3688 27.8547 78.6041 27.2756 79.0656 26.7597C79.5362 26.2439 80.2149 25.9814 81.1018 25.9814C81.9887 25.9814 82.6041 26.2439 83.0656 26.7597C83.5181 27.2756 83.7534 27.8547 83.7534 28.4973C83.7534 29.1036 83.5271 29.6647 83.0656 30.2077C82.6131 30.7507 81.9525 31.0131 81.1018 31.0131Z" stroke="white"/>
<path d="M91.7703 48.9812C90.1685 48.9812 88.9468 48.5377 88.0871 47.6599C87.2274 46.7821 86.793 45.497 86.793 43.8138V25.6418H91.5531V43.4699C91.5531 44.4201 91.9966 44.8997 92.8925 44.8997C93.3721 44.8997 93.7703 44.7821 94.1052 44.5558L95.2545 47.9495C94.9016 48.2391 94.4129 48.4834 93.7884 48.6825C93.164 48.8816 92.4943 48.9812 91.7703 48.9812Z" stroke="white"/>
<path d="M100.128 48.9812C98.5264 48.9812 97.3047 48.5377 96.445 47.6599C95.5853 46.7821 95.1509 45.497 95.1509 43.8138V25.6418H99.9111V43.4699C99.9111 44.4201 100.354 44.8997 101.25 44.8997C101.73 44.8997 102.128 44.7821 102.463 44.5558L103.612 47.9495C103.259 48.2391 102.771 48.4834 102.146 48.6825C101.522 48.8816 100.852 48.9812 100.128 48.9812Z" stroke="white"/>
<path d="M112.413 49.0034C110.648 49.0034 109.128 48.6776 107.843 48.026C106.558 47.3744 105.562 46.4513 104.856 45.2568C104.15 44.0622 103.797 42.6505 103.797 41.0124C103.797 39.3744 104.159 37.8903 104.874 36.6233C105.589 35.3563 106.558 34.3699 107.77 33.664C108.983 32.9582 110.358 32.6052 111.888 32.6052C113.634 32.6052 115.046 33.0034 116.15 33.7907C117.245 34.5781 118.015 35.6912 118.44 37.1392C118.865 38.5781 118.956 40.2523 118.702 42.1618H108.657C108.784 42.9491 109.2 43.6097 109.906 44.1346C110.612 44.6595 111.571 44.931 112.802 44.931C113.363 44.931 113.951 44.8133 114.576 44.569C115.2 44.3337 115.725 43.9717 116.159 43.4921L118.802 46.2885C118.114 47.121 117.272 47.7726 116.268 48.2613C115.263 48.75 113.978 48.9943 112.422 48.9943L112.413 49.0034ZM111.978 36.0622C111.146 36.0622 110.449 36.3156 109.879 36.8134C109.309 37.3111 108.929 38.0079 108.748 38.8948H114.693C114.711 37.9174 114.485 37.2025 113.996 36.75C113.508 36.2975 112.838 36.0622 111.987 36.0622H111.978Z" stroke="white"/>
<path d="M131.315 37.4637C130.899 37.3008 130.338 37.2194 129.632 37.2194C128.555 37.2194 127.695 37.5995 127.053 38.3506C126.41 39.1108 125.94 40.3325 125.65 42.0248C125.361 43.7171 125.216 45.9433 125.216 48.6945H120.483V38.432L120.419 32.8664H125.18L124.962 36.8212C125.524 35.3099 126.275 34.2329 127.216 33.5814C128.157 32.9388 129.171 32.613 130.247 32.613C130.6 32.613 130.926 32.6311 131.225 32.6764C131.523 32.7216 131.831 32.794 132.139 32.8936L131.297 37.4637H131.315Z" stroke="white"/>
<defs>
<clipPath id="clip0_3296_4158">
<rect width="35.168" height="48" fill="white" transform="translate(0 1.00171)"/>
</clipPath>
</defs>
</svg>
