<svg width="44" height="32" viewBox="0 0 44 32" fill="none" xmlns="http://www.w3.org/2000/svg">
<path fill-rule="evenodd" clip-rule="evenodd" d="M16 3C8.8175 3 3 8.8175 3 16C3 21.7525 6.72125 26.6112 11.8888 28.3337C12.5387 28.4475 12.7825 28.0575 12.7825 27.7162C12.7825 27.4075 12.7663 26.3838 12.7663 25.295C9.5 25.8962 8.655 24.4987 8.395 23.7675C8.24875 23.3937 7.615 22.24 7.0625 21.9312C6.6075 21.6875 5.9575 21.0863 7.04625 21.07C8.07 21.0537 8.80125 22.0125 9.045 22.4025C10.215 24.3687 12.0838 23.8162 12.8313 23.475C12.945 22.63 13.2863 22.0612 13.66 21.7362C10.7675 21.4112 7.745 20.29 7.745 15.3175C7.745 13.9037 8.24875 12.7337 9.0775 11.8237C8.9475 11.4987 8.4925 10.1662 9.2075 8.37875C9.2075 8.37875 10.2962 8.0375 12.7825 9.71125C13.8225 9.41875 14.9275 9.2725 16.0325 9.2725C17.1375 9.2725 18.2425 9.41875 19.2825 9.71125C21.7688 8.02125 22.8575 8.37875 22.8575 8.37875C23.5725 10.1662 23.1175 11.4987 22.9875 11.8237C23.8162 12.7337 24.32 13.8875 24.32 15.3175C24.32 20.3062 21.2812 21.4112 18.3888 21.7362C18.86 22.1425 19.2663 22.9225 19.2663 24.1413C19.2663 25.88 19.25 27.2775 19.25 27.7162C19.25 28.0575 19.4937 28.4638 20.1438 28.3337C25.2788 26.6112 29 21.7362 29 16C29 8.8175 23.1825 3 16 3Z" fill="white"/>
<mask id="mask0_3296_4072" style="mask-type:alpha" maskUnits="userSpaceOnUse" x="36" y="12" width="8" height="8">
<rect x="36.5" y="12.5" width="7" height="7" fill="#D9D9D9" stroke="#3DCFB6"/>
</mask>
<g mask="url(#mask0_3296_4072)">
<path d="M39.9893 13.8965C40.5803 13.8965 41.0669 14.0981 41.4775 14.5088C41.8881 14.9195 42.0889 15.406 42.0889 15.9971C42.0888 16.5142 41.9347 16.9509 41.6211 17.3271L41.4775 17.4854C41.0669 17.896 40.5803 18.0966 39.9893 18.0967C39.3982 18.0967 38.9117 17.8959 38.501 17.4854L38.3564 17.3271C38.0878 17.0047 37.9363 16.6377 37.8984 16.2139L37.8887 15.9971C37.8887 15.4798 38.0427 15.0423 38.3564 14.666L38.501 14.5088C38.9117 14.0981 39.3981 13.8965 39.9893 13.8965Z" fill="#3DCFB6" stroke="#3DCFB6"/>
</g>
</svg>
